<svg xmlns="http://www.w3.org/2000/svg" viewBox="0 0 400 600" width="100%" height="100%">
    <rect width="100%" height="100%" fill="#ffffff" rx="16"/>
    
  <rect width="100%" height="100%" fill="#f1f5f9" rx="16"/>
  <g stroke="#475569" stroke-width="3" fill="none" stroke-linecap="round" stroke-linejoin="round">
    <!-- Head -->
    <circle cx="200" cy="100" r="40" fill="#fed7aa"/>
    <!-- Spine/Body -->
    <path d="M 200 140 L 200 350" />
    <!-- Shoulders -->
    <path d="M 140 180 Q 200 160 260 180" />
    <!-- Arms -->
    <path d="M 140 180 L 120 300 L 140 400" />
    <path d="M 260 180 L 280 300 L 260 400" />
    <!-- Pelvis -->
    <path d="M 160 350 Q 200 370 240 350" />
    <!-- Legs -->
    <path d="M 160 350 L 160 500 L 180 600" />
    <path d="M 240 350 L 240 500 L 220 600" />
  </g>
  <!-- Organs placeholders -->
  <g>
    <!-- Brain -->
    <ellipse cx="200" cy="85" rx="25" ry="15" fill="#fca5a5" opacity="0.8"/>
    <!-- Heart -->
    <path d="M 200 220 A 15 15 0 0 1 230 220 Q 230 250 200 270 Q 170 250 170 220 A 15 15 0 0 1 200 220 Z" fill="#ef4444" opacity="0.8"/>
    <!-- Lungs -->
    <ellipse cx="175" cy="230" rx="15" ry="30" fill="#fecaca" opacity="0.6"/>
    <ellipse cx="225" cy="230" rx="15" ry="30" fill="#fecaca" opacity="0.6"/>
  </g>

  </svg>