<svg xmlns="http://www.w3.org/2000/svg" viewBox="0 0 800 400" width="100%" height="100%">
    <rect width="100%" height="100%" fill="#ffffff" rx="16"/>
    
  <rect width="100%" height="100%" fill="#f8fafc" rx="16"/>
  <g fill="#e0f2fe" stroke="#0284c7" stroke-width="1">
    <rect x="50" y="50" width="36" height="36" rx="4"/><rect x="50" y="90" width="36" height="36" rx="4"/><rect x="50" y="130" width="36" height="36" rx="4"/><rect x="50" y="170" width="36" height="36" rx="4"/><rect x="50" y="210" width="36" height="36" rx="4"/><rect x="50" y="250" width="36" height="36" rx="4"/><rect x="50" y="290" width="36" height="36" rx="4"/><rect x="90" y="90" width="36" height="36" rx="4"/><rect x="90" y="130" width="36" height="36" rx="4"/><rect x="90" y="170" width="36" height="36" rx="4"/><rect x="90" y="210" width="36" height="36" rx="4"/><rect x="90" y="250" width="36" height="36" rx="4"/><rect x="90" y="290" width="36" height="36" rx="4"/><rect x="130" y="170" width="36" height="36" rx="4"/><rect x="130" y="210" width="36" height="36" rx="4"/><rect x="130" y="250" width="36" height="36" rx="4"/><rect x="130" y="290" width="36" height="36" rx="4"/><rect x="170" y="170" width="36" height="36" rx="4"/><rect x="170" y="210" width="36" height="36" rx="4"/><rect x="170" y="250" width="36" height="36" rx="4"/><rect x="170" y="290" width="36" height="36" rx="4"/><rect x="210" y="170" width="36" height="36" rx="4"/><rect x="210" y="210" width="36" height="36" rx="4"/><rect x="210" y="250" width="36" height="36" rx="4"/><rect x="210" y="290" width="36" height="36" rx="4"/><rect x="250" y="170" width="36" height="36" rx="4"/><rect x="250" y="210" width="36" height="36" rx="4"/><rect x="250" y="250" width="36" height="36" rx="4"/><rect x="250" y="290" width="36" height="36" rx="4"/><rect x="290" y="170" width="36" height="36" rx="4"/><rect x="290" y="210" width="36" height="36" rx="4"/><rect x="290" y="250" width="36" height="36" rx="4"/><rect x="290" y="290" width="36" height="36" rx="4"/><rect x="330" y="170" width="36" height="36" rx="4"/><rect x="330" y="210" width="36" height="36" rx="4"/><rect x="330" y="250" width="36" height="36" rx="4"/><rect x="330" y="290" width="36" height="36" rx="4"/><rect x="370" y="170" width="36" height="36" rx="4"/><rect x="370" y="210" width="36" height="36" rx="4"/><rect x="370" y="250" width="36" height="36" rx="4"/><rect x="370" y="290" width="36" height="36" rx="4"/><rect x="410" y="170" width="36" height="36" rx="4"/><rect x="410" y="210" width="36" height="36" rx="4"/><rect x="410" y="250" width="36" height="36" rx="4"/><rect x="410" y="290" width="36" height="36" rx="4"/><rect x="450" y="170" width="36" height="36" rx="4"/><rect x="450" y="210" width="36" height="36" rx="4"/><rect x="450" y="250" width="36" height="36" rx="4"/><rect x="450" y="290" width="36" height="36" rx="4"/><rect x="490" y="170" width="36" height="36" rx="4"/><rect x="490" y="210" width="36" height="36" rx="4"/><rect x="490" y="250" width="36" height="36" rx="4"/><rect x="490" y="290" width="36" height="36" rx="4"/><rect x="530" y="90" width="36" height="36" rx="4"/><rect x="530" y="130" width="36" height="36" rx="4"/><rect x="530" y="170" width="36" height="36" rx="4"/><rect x="530" y="210" width="36" height="36" rx="4"/><rect x="530" y="250" width="36" height="36" rx="4"/><rect x="530" y="290" width="36" height="36" rx="4"/><rect x="570" y="90" width="36" height="36" rx="4"/><rect x="570" y="130" width="36" height="36" rx="4"/><rect x="570" y="170" width="36" height="36" rx="4"/><rect x="570" y="210" width="36" height="36" rx="4"/><rect x="570" y="250" width="36" height="36" rx="4"/><rect x="570" y="290" width="36" height="36" rx="4"/><rect x="610" y="90" width="36" height="36" rx="4"/><rect x="610" y="130" width="36" height="36" rx="4"/><rect x="610" y="170" width="36" height="36" rx="4"/><rect x="610" y="210" width="36" height="36" rx="4"/><rect x="610" y="250" width="36" height="36" rx="4"/><rect x="610" y="290" width="36" height="36" rx="4"/><rect x="650" y="90" width="36" height="36" rx="4"/><rect x="650" y="130" width="36" height="36" rx="4"/><rect x="650" y="170" width="36" height="36" rx="4"/><rect x="650" y="210" width="36" height="36" rx="4"/><rect x="650" y="250" width="36" height="36" rx="4"/><rect x="650" y="290" width="36" height="36" rx="4"/><rect x="690" y="90" width="36" height="36" rx="4"/><rect x="690" y="130" width="36" height="36" rx="4"/><rect x="690" y="170" width="36" height="36" rx="4"/><rect x="690" y="210" width="36" height="36" rx="4"/><rect x="690" y="250" width="36" height="36" rx="4"/><rect x="690" y="290" width="36" height="36" rx="4"/><rect x="730" y="50" width="36" height="36" rx="4"/><rect x="730" y="90" width="36" height="36" rx="4"/><rect x="730" y="130" width="36" height="36" rx="4"/><rect x="730" y="170" width="36" height="36" rx="4"/><rect x="730" y="210" width="36" height="36" rx="4"/><rect x="730" y="250" width="36" height="36" rx="4"/><rect x="730" y="290" width="36" height="36" rx="4"/>
  </g>
  <!-- Lanthanides / Actinides -->
  <g fill="#fef08a" stroke="#ca8a04" stroke-width="1">
    <rect x="130" y="350" width="36" height="36" rx="4"/><rect x="130" y="400" width="36" height="36" rx="4"/><rect x="170" y="350" width="36" height="36" rx="4"/><rect x="170" y="400" width="36" height="36" rx="4"/><rect x="210" y="350" width="36" height="36" rx="4"/><rect x="210" y="400" width="36" height="36" rx="4"/><rect x="250" y="350" width="36" height="36" rx="4"/><rect x="250" y="400" width="36" height="36" rx="4"/><rect x="290" y="350" width="36" height="36" rx="4"/><rect x="290" y="400" width="36" height="36" rx="4"/><rect x="330" y="350" width="36" height="36" rx="4"/><rect x="330" y="400" width="36" height="36" rx="4"/><rect x="370" y="350" width="36" height="36" rx="4"/><rect x="370" y="400" width="36" height="36" rx="4"/><rect x="410" y="350" width="36" height="36" rx="4"/><rect x="410" y="400" width="36" height="36" rx="4"/><rect x="450" y="350" width="36" height="36" rx="4"/><rect x="450" y="400" width="36" height="36" rx="4"/><rect x="490" y="350" width="36" height="36" rx="4"/><rect x="490" y="400" width="36" height="36" rx="4"/><rect x="530" y="350" width="36" height="36" rx="4"/><rect x="530" y="400" width="36" height="36" rx="4"/><rect x="570" y="350" width="36" height="36" rx="4"/><rect x="570" y="400" width="36" height="36" rx="4"/><rect x="610" y="350" width="36" height="36" rx="4"/><rect x="610" y="400" width="36" height="36" rx="4"/><rect x="650" y="350" width="36" height="36" rx="4"/><rect x="650" y="400" width="36" height="36" rx="4"/>
  </g>

  </svg>