<svg xmlns="http://www.w3.org/2000/svg" viewBox="0 0 800 400" width="100%" height="100%">
    <rect width="100%" height="100%" fill="#ffffff" rx="16"/>
    
  <g fill="#e2e8f0" stroke="#94a3b8" stroke-width="2">
    <!-- North America -->
    <path d="M 150 50 Q 200 20 250 80 T 200 180 Q 120 180 150 50" />
    <!-- South America -->
    <path d="M 230 180 Q 280 200 250 300 T 210 350 Q 180 250 230 180" />
    <!-- Europe & Asia -->
    <path d="M 400 60 Q 550 10 700 80 T 750 200 Q 600 220 500 150 Q 400 180 400 60" />
    <!-- Africa -->
    <path d="M 380 160 Q 480 150 500 250 T 430 320 Q 350 250 380 160" />
    <!-- Australia -->
    <path d="M 650 250 Q 750 250 720 320 T 650 320 Q 620 280 650 250" />
  </g>

  </svg>