<svg xmlns="http://www.w3.org/2000/svg" viewBox="0 0 800 400" width="100%" height="100%">
    <rect width="100%" height="100%" fill="#ffffff" rx="16"/>
    
  <rect width="100%" height="100%" fill="#0ea5e9" rx="16"/>
  <g fill="#22c55e" stroke="#15803d" stroke-width="2">
    <!-- North America -->
    <path d="M 150 50 Q 200 20 250 80 T 200 180 Q 120 180 150 50" />
    <!-- South America -->
    <path d="M 230 180 Q 280 200 250 300 T 210 350 Q 180 250 230 180" />
    <!-- Europe & Asia -->
    <path d="M 400 60 Q 550 10 700 80 T 750 200 Q 600 220 500 150 Q 400 180 400 60" />
    <!-- Africa -->
    <path d="M 380 160 Q 480 150 500 250 T 430 320 Q 350 250 380 160" />
    <!-- Australia -->
    <path d="M 650 250 Q 750 250 720 320 T 650 320 Q 620 280 650 250" />
  </g>
  <!-- Mountain ranges overlay -->
  <g fill="#a16207" opacity="0.6">
    <polygon points="170,80 180,60 190,80" />
    <polygon points="180,90 190,70 200,90" />
    <polygon points="190,100 200,80 210,100" />
    
    <polygon points="230,220 240,200 250,220" />
    <polygon points="235,240 245,220 255,240" />

    <polygon points="450,110 460,90 470,110" />
    <polygon points="470,110 480,90 490,110" />
  </g>

  </svg>